<mxfile host="65bd71144e">
    <diagram id="PNGzUkD4HvL5Xzpf1gsg" name="Page-1">
        <mxGraphModel dx="661" dy="594" grid="1" gridSize="10" guides="1" tooltips="1" connect="1" arrows="1" fold="1" page="1" pageScale="1" pageWidth="827" pageHeight="1169" math="0" shadow="0">
            <root>
                <mxCell id="0"/>
                <mxCell id="1" parent="0"/>
                <mxCell id="2" value="" style="swimlane;startSize=0;fontColor=#000000;fillColor=#FFFFFF;" vertex="1" parent="1">
                    <mxGeometry x="40" y="310" width="720" height="570" as="geometry"/>
                </mxCell>
                <object placeholders="1" c4Name=" " c4Type=" " c4Application=" " label="&lt;font style=&quot;font-size: 16px&quot;&gt;&lt;b&gt;&lt;div style=&quot;text-align: left&quot;&gt;%c4Name%&lt;/div&gt;&lt;/b&gt;&lt;/font&gt;&lt;div style=&quot;text-align: left&quot;&gt;[%c4Application%]&lt;/div&gt;" id="3">
                    <mxCell style="rounded=1;fontSize=11;whiteSpace=wrap;html=1;dashed=1;arcSize=20;fillColor=none;strokeColor=#666666;fontColor=#333333;labelBackgroundColor=#bbb9b9;align=left;verticalAlign=bottom;labelBorderColor=none;spacingTop=0;spacing=10;dashPattern=8 4;metaEdit=1;rotatable=0;perimeter=rectanglePerimeter;noLabel=0;labelPadding=0;allowArrows=0;connectable=0;expand=0;recursiveResize=0;editable=1;pointerEvents=0;absoluteArcSize=1;points=[[0.25,0,0],[0.5,0,0],[0.75,0,0],[1,0.25,0],[1,0.5,0],[1,0.75,0],[0.75,1,0],[0.5,1,0],[0.25,1,0],[0,0.75,0],[0,0.5,0],[0,0.25,0]];" vertex="1" parent="2">
                        <mxGeometry x="289" y="7.5" width="172" height="162.5" as="geometry"/>
                    </mxCell>
                </object>
                <mxCell id="6" value="Dockerfile" style="sketch=0;aspect=fixed;html=1;points=[];align=center;image;fontSize=12;image=img/lib/mscae/Docker.svg;labelBackgroundColor=#bbb9b9;labelBorderColor=default;fontColor=#030303;fillColor=#FFFFFF;" vertex="1" parent="2">
                    <mxGeometry x="271" y="126.5" width="50" height="41" as="geometry"/>
                </mxCell>
                <mxCell id="17" value="NGINX&lt;br&gt;LoadBalancer" style="verticalLabelPosition=bottom;sketch=0;html=1;fillColor=#6ABD46;strokeColor=#ffffff;verticalAlign=top;align=center;points=[[0.085,0.085,0],[0.915,0.085,0],[0.915,0.915,0],[0.085,0.915,0],[0.25,0,0],[0.5,0,0],[0.75,0,0],[1,0.25,0],[1,0.5,0],[1,0.75,0],[0.75,1,0],[0.5,1,0],[0.25,1,0],[0,0.75,0],[0,0.5,0],[0,0.25,0]];pointerEvents=1;shape=mxgraph.cisco_safe.compositeIcon;bgIcon=mxgraph.cisco_safe.architecture.generic_appliance;resIcon=mxgraph.cisco_safe.architecture.load_balancer;" vertex="1" parent="2">
                    <mxGeometry x="350" y="47.5" width="50" height="50" as="geometry"/>
                </mxCell>
                <mxCell id="19" value="&lt;span style=&quot;margin: 0px; padding: 0.137715px 0px 0px; user-select: text; -webkit-user-drag: none; -webkit-tap-highlight-color: transparent; touch-action: pan-x pan-y; font-variant-numeric: normal; font-variant-east-asian: normal; color: rgb(0, 0, 0); letter-spacing: 0px; background-color: rgb(237, 235, 233); font-size: 8pt; font-family: Verdana, Verdana_EmbeddedFont, Verdana_MSFontService, sans-serif; font-kerning: none; line-height: 11px; vertical-align: -0.137715px;&quot; lang=&quot;PT-BR&quot; class=&quot;TextRun SCXP32447538 BCX0&quot; data-contrast=&quot;none&quot; data-usefontface=&quot;true&quot; data-scheme-color=&quot;@000000,1,&quot;&gt;&lt;span style=&quot;margin: 0px; padding: 0px; user-select: text; -webkit-user-drag: none; -webkit-tap-highlight-color: transparent; touch-action: pan-x pan-y; vertical-align: 0.137715px; line-height: 0px; position: relative;&quot; class=&quot;NormalTextRun SCXP32447538 BCX0&quot;&gt;As solicitações HTTP&amp;nbsp;&lt;/span&gt;&lt;/span&gt;&lt;span style=&quot;margin: 0px; padding: 0.137715px 0px 0px; user-select: text; -webkit-user-drag: none; -webkit-tap-highlight-color: transparent; touch-action: pan-x pan-y; font-variant-numeric: normal; font-variant-east-asian: normal; color: rgb(0, 0, 0); letter-spacing: 0px; background-color: rgb(237, 235, 233); font-size: 8pt; font-family: Verdana, Verdana_EmbeddedFont, Verdana_MSFontService, sans-serif; font-kerning: none; line-height: 11px; vertical-align: -0.137715px;&quot; lang=&quot;PT-BR&quot; class=&quot;TextRun SCXP32447538 BCX0&quot; data-contrast=&quot;none&quot; data-usefontface=&quot;true&quot; data-scheme-color=&quot;@000000,1,&quot;&gt;&lt;span style=&quot;margin: 0px; padding: 0px; user-select: text; -webkit-user-drag: none; -webkit-tap-highlight-color: transparent; touch-action: pan-x pan-y; vertical-align: 0.137715px; line-height: 0px; position: relative;&quot; class=&quot;NormalTextRun SCXP32447538 BCX0&quot;&gt;são roteadas para&amp;nbsp;&lt;/span&gt;&lt;/span&gt;&lt;span style=&quot;margin: 0px; padding: 0.137715px 0px 0px; user-select: text; -webkit-user-drag: none; -webkit-tap-highlight-color: transparent; touch-action: pan-x pan-y; font-variant-numeric: normal; font-variant-east-asian: normal; color: rgb(0, 0, 0); letter-spacing: 0px; background-color: rgb(237, 235, 233); font-size: 8pt; font-family: Verdana, Verdana_EmbeddedFont, Verdana_MSFontService, sans-serif; font-kerning: none; line-height: 11px; vertical-align: -0.137715px;&quot; lang=&quot;PT-BR&quot; class=&quot;TextRun SCXP32447538 BCX0&quot; data-contrast=&quot;none&quot; data-usefontface=&quot;true&quot; data-scheme-color=&quot;@000000,1,&quot;&gt;&lt;span style=&quot;margin: 0px; padding: 0px; user-select: text; -webkit-user-drag: none; -webkit-tap-highlight-color: transparent; touch-action: pan-x pan-y; vertical-align: 0.137715px; line-height: 0px; position: relative;&quot; class=&quot;NormalTextRun SCXP32447538 BCX0&quot;&gt;um Container&amp;nbsp;&lt;/span&gt;&lt;/span&gt;&lt;span style=&quot;margin: 0px; padding: 0.137715px 0px 0px; user-select: text; -webkit-user-drag: none; -webkit-tap-highlight-color: transparent; touch-action: pan-x pan-y; font-variant-numeric: normal; font-variant-east-asian: normal; color: rgb(0, 0, 0); letter-spacing: 0px; background-color: rgb(237, 235, 233); font-size: 8pt; font-family: Verdana, Verdana_EmbeddedFont, Verdana_MSFontService, sans-serif; font-kerning: none; line-height: 11px; vertical-align: -0.137715px;&quot; lang=&quot;PT-BR&quot; class=&quot;TextRun SCXP32447538 BCX0&quot; data-contrast=&quot;none&quot; data-usefontface=&quot;true&quot; data-scheme-color=&quot;@000000,1,&quot;&gt;&lt;span style=&quot;margin: 0px; padding: 0px; user-select: text; -webkit-user-drag: none; -webkit-tap-highlight-color: transparent; touch-action: pan-x pan-y; background-repeat: repeat-x; background-position: left bottom; background-image: url(&amp;quot;data:image/gif;base64,R0lGODlhBQAEAJECAP////8AAAAAAAAAACH5BAEAAAIALAAAAAAFAAQAAAIIlGAXCCHrTCgAOw==&amp;quot;); border-bottom: 1px solid transparent; vertical-align: 0.137715px; line-height: 0px; position: relative;&quot; class=&quot;SpellingError SCXP32447538 BCX0&quot;&gt;Flask&lt;/span&gt;&lt;/span&gt;&lt;span style=&quot;margin: 0px; padding: 0px; user-select: text; -webkit-user-drag: none; -webkit-tap-highlight-color: transparent; touch-action: pan-x pan-y; color: rgb(0, 0, 0); background-color: rgb(237, 235, 233); font-size: 8pt; line-height: 0px; font-family: Verdana, Verdana_EmbeddedFont, Verdana_MSFontService, sans-serif;&quot; class=&quot;EOP SCXP32447538 BCX0&quot;&gt;​&lt;/span&gt;" style="text;html=1;strokeColor=none;fillColor=none;align=center;verticalAlign=middle;whiteSpace=wrap;rounded=0;" vertex="1" parent="2">
                    <mxGeometry x="141" y="72.5" width="140" height="30" as="geometry"/>
                </mxCell>
                <object placeholders="1" c4Name=" " c4Type=" " c4Application=" " label="&lt;font style=&quot;font-size: 16px&quot;&gt;&lt;b&gt;&lt;div style=&quot;text-align: left&quot;&gt;%c4Name%&lt;/div&gt;&lt;/b&gt;&lt;/font&gt;&lt;div style=&quot;text-align: left&quot;&gt;[%c4Application%]&lt;/div&gt;" id="20">
                    <mxCell style="rounded=1;fontSize=11;whiteSpace=wrap;html=1;dashed=1;arcSize=20;fillColor=none;strokeColor=#666666;fontColor=#333333;labelBackgroundColor=#bbb9b9;align=left;verticalAlign=bottom;labelBorderColor=none;spacingTop=0;spacing=10;dashPattern=8 4;metaEdit=1;rotatable=0;perimeter=rectanglePerimeter;noLabel=0;labelPadding=0;allowArrows=0;connectable=0;expand=0;recursiveResize=0;editable=1;pointerEvents=0;absoluteArcSize=1;points=[[0.25,0,0],[0.5,0,0],[0.75,0,0],[1,0.25,0],[1,0.5,0],[1,0.75,0],[0.75,1,0],[0.5,1,0],[0.25,1,0],[0,0.75,0],[0,0.5,0],[0,0.25,0]];" vertex="1" parent="2">
                        <mxGeometry x="289" y="217.5" width="171" height="120" as="geometry"/>
                    </mxCell>
                </object>
                <mxCell id="21" value="Dockerfile" style="sketch=0;aspect=fixed;html=1;points=[];align=center;image;fontSize=12;image=img/lib/mscae/Docker.svg;labelBackgroundColor=#bbb9b9;labelBorderColor=default;fontColor=#030303;fillColor=#FFFFFF;" vertex="1" parent="2">
                    <mxGeometry x="271" y="302" width="50" height="41" as="geometry"/>
                </mxCell>
                <mxCell id="23" value="&lt;span style=&quot;margin: 0px; padding: 0.137715px 0px 0px; user-select: text; -webkit-user-drag: none; -webkit-tap-highlight-color: transparent; touch-action: pan-x pan-y; font-variant-numeric: normal; font-variant-east-asian: normal; color: rgb(0, 0, 0); letter-spacing: 0px; background-color: rgb(237, 235, 233); font-size: 8pt; font-family: Verdana, Verdana_EmbeddedFont, Verdana_MSFontService, sans-serif; font-kerning: none; line-height: 11px; vertical-align: -0.137715px;&quot; lang=&quot;PT-BR&quot; class=&quot;TextRun SCXP31369419 BCX0&quot; data-contrast=&quot;none&quot; data-usefontface=&quot;false&quot;&gt;&lt;span style=&quot;margin: 0px; padding: 0px; user-select: text; -webkit-user-drag: none; -webkit-tap-highlight-color: transparent; touch-action: pan-x pan-y; vertical-align: 0.137715px; line-height: 0px; position: relative;&quot; class=&quot;NormalTextRun SCXP31369419 BCX0&quot;&gt;Gerencia as&amp;nbsp;&lt;/span&gt;&lt;/span&gt;&lt;span style=&quot;margin: 0px; padding: 0.137715px 0px 0px; user-select: text; -webkit-user-drag: none; -webkit-tap-highlight-color: transparent; touch-action: pan-x pan-y; font-variant-numeric: normal; font-variant-east-asian: normal; color: rgb(0, 0, 0); letter-spacing: 0px; background-color: rgb(237, 235, 233); font-size: 8pt; font-family: Verdana, Verdana_EmbeddedFont, Verdana_MSFontService, sans-serif; font-kerning: none; line-height: 11px; vertical-align: -0.137715px;&quot; lang=&quot;PT-BR&quot; class=&quot;TextRun SCXP31369419 BCX0&quot; data-contrast=&quot;none&quot; data-usefontface=&quot;false&quot;&gt;&lt;span style=&quot;margin: 0px; padding: 0px; user-select: text; -webkit-user-drag: none; -webkit-tap-highlight-color: transparent; touch-action: pan-x pan-y; vertical-align: 0.137715px; line-height: 0px; position: relative;&quot; class=&quot;NormalTextRun SCXP31369419 BCX0&quot;&gt;solicitações e exibe&amp;nbsp;&lt;/span&gt;&lt;/span&gt;&lt;span style=&quot;margin: 0px; padding: 0.137715px 0px 0px; user-select: text; -webkit-user-drag: none; -webkit-tap-highlight-color: transparent; touch-action: pan-x pan-y; font-variant-numeric: normal; font-variant-east-asian: normal; color: rgb(0, 0, 0); letter-spacing: 0px; background-color: rgb(237, 235, 233); font-size: 8pt; font-family: Verdana, Verdana_EmbeddedFont, Verdana_MSFontService, sans-serif; font-kerning: none; line-height: 11px; vertical-align: -0.137715px;&quot; lang=&quot;PT-BR&quot; class=&quot;TextRun SCXP31369419 BCX0&quot; data-contrast=&quot;none&quot; data-usefontface=&quot;false&quot;&gt;&lt;span style=&quot;margin: 0px; padding: 0px; user-select: text; -webkit-user-drag: none; -webkit-tap-highlight-color: transparent; touch-action: pan-x pan-y; vertical-align: 0.137715px; line-height: 0px; position: relative;&quot; class=&quot;NormalTextRun SCXP31369419 BCX0&quot;&gt;uma página web&amp;nbsp;&lt;/span&gt;&lt;/span&gt;&lt;span style=&quot;margin: 0px; padding: 0.137715px 0px 0px; user-select: text; -webkit-user-drag: none; -webkit-tap-highlight-color: transparent; touch-action: pan-x pan-y; font-variant-numeric: normal; font-variant-east-asian: normal; color: rgb(0, 0, 0); letter-spacing: 0px; background-color: rgb(237, 235, 233); font-size: 8pt; font-family: Verdana, Verdana_EmbeddedFont, Verdana_MSFontService, sans-serif; font-kerning: none; line-height: 11px; vertical-align: -0.137715px;&quot; lang=&quot;PT-BR&quot; class=&quot;TextRun SCXP31369419 BCX0&quot; data-contrast=&quot;none&quot; data-usefontface=&quot;false&quot;&gt;&lt;span style=&quot;margin: 0px; padding: 0px; user-select: text; -webkit-user-drag: none; -webkit-tap-highlight-color: transparent; touch-action: pan-x pan-y; vertical-align: 0.137715px; line-height: 0px; position: relative;&quot; class=&quot;NormalTextRun SCXP31369419 BCX0&quot;&gt;contendo um&amp;nbsp;&lt;/span&gt;&lt;/span&gt;&lt;span style=&quot;margin: 0px; padding: 0.137715px 0px 0px; user-select: text; -webkit-user-drag: none; -webkit-tap-highlight-color: transparent; touch-action: pan-x pan-y; font-variant-numeric: normal; font-variant-east-asian: normal; color: rgb(0, 0, 0); letter-spacing: 0px; background-color: rgb(237, 235, 233); font-size: 8pt; font-family: Verdana, Verdana_EmbeddedFont, Verdana_MSFontService, sans-serif; font-kerning: none; line-height: 11px; vertical-align: -0.137715px;&quot; lang=&quot;PT-BR&quot; class=&quot;TextRun SCXP31369419 BCX0&quot; data-contrast=&quot;none&quot; data-usefontface=&quot;false&quot;&gt;&lt;span style=&quot;margin: 0px; padding: 0px; user-select: text; -webkit-user-drag: none; -webkit-tap-highlight-color: transparent; touch-action: pan-x pan-y; vertical-align: 0.137715px; line-height: 0px; position: relative;&quot; class=&quot;NormalTextRun SCXP31369419 BCX0&quot;&gt;contador de acessos&lt;/span&gt;&lt;/span&gt;&lt;span style=&quot;margin: 0px; padding: 0px; user-select: text; -webkit-user-drag: none; -webkit-tap-highlight-color: transparent; touch-action: pan-x pan-y; color: rgb(0, 0, 0); background-color: rgb(237, 235, 233); font-size: 8pt; line-height: 0px; font-family: Verdana, Verdana_EmbeddedFont, Verdana_MSFontService, sans-serif;&quot; class=&quot;EOP SCXP31369419 BCX0&quot;&gt;​&lt;/span&gt;" style="text;html=1;strokeColor=none;fillColor=none;align=center;verticalAlign=middle;whiteSpace=wrap;rounded=0;" vertex="1" parent="2">
                    <mxGeometry x="141" y="242" width="140" height="60" as="geometry"/>
                </mxCell>
                <mxCell id="24" value="Microframework" style="outlineConnect=0;dashed=0;verticalLabelPosition=bottom;verticalAlign=top;align=center;html=1;shape=mxgraph.aws3.android;fillColor=#FFD44F;gradientColor=none;" vertex="1" parent="2">
                    <mxGeometry x="337" y="230" width="73.5" height="64.25" as="geometry"/>
                </mxCell>
                <object placeholders="1" c4Name=" " c4Type=" " c4Application=" " label="&lt;font style=&quot;font-size: 16px&quot;&gt;&lt;b&gt;&lt;div style=&quot;text-align: left&quot;&gt;%c4Name%&lt;/div&gt;&lt;/b&gt;&lt;/font&gt;&lt;div style=&quot;text-align: left&quot;&gt;[%c4Application%]&lt;/div&gt;" id="25">
                    <mxCell style="rounded=1;fontSize=11;whiteSpace=wrap;html=1;dashed=1;arcSize=20;fillColor=none;strokeColor=#666666;fontColor=#333333;labelBackgroundColor=#bbb9b9;align=left;verticalAlign=bottom;labelBorderColor=none;spacingTop=0;spacing=10;dashPattern=8 4;metaEdit=1;rotatable=0;perimeter=rectanglePerimeter;noLabel=0;labelPadding=0;allowArrows=0;connectable=0;expand=0;recursiveResize=0;editable=1;pointerEvents=0;absoluteArcSize=1;points=[[0.25,0,0],[0.5,0,0],[0.75,0,0],[1,0.25,0],[1,0.5,0],[1,0.75,0],[0.75,1,0],[0.5,1,0],[0.25,1,0],[0,0.75,0],[0,0.5,0],[0,0.25,0]];" vertex="1" parent="2">
                        <mxGeometry x="88" y="332.5" width="172" height="110" as="geometry"/>
                    </mxCell>
                </object>
                <mxCell id="26" value="Dockerfile" style="sketch=0;aspect=fixed;html=1;points=[];align=center;image;fontSize=12;image=img/lib/mscae/Docker.svg;labelBackgroundColor=#bbb9b9;labelBorderColor=default;fontColor=#030303;fillColor=#FFFFFF;" vertex="1" parent="2">
                    <mxGeometry x="80" y="417" width="50" height="41" as="geometry"/>
                </mxCell>
                <mxCell id="27" value="&lt;span style=&quot;margin: 0px; padding: 0.0910052px 0px 0px; user-select: text; -webkit-user-drag: none; -webkit-tap-highlight-color: transparent; touch-action: pan-x pan-y; font-variant-numeric: normal; font-variant-east-asian: normal; color: rgb(0, 0, 0); letter-spacing: 0px; background-color: rgb(237, 235, 233); font-size: 8pt; font-family: Verdana, Verdana_EmbeddedFont, Verdana_MSFontService, sans-serif; font-kerning: none; line-height: 9px; vertical-align: -0.0910052px;&quot; lang=&quot;PT-BR&quot; class=&quot;TextRun SCXP220574840 BCX0&quot; data-contrast=&quot;none&quot; data-usefontface=&quot;false&quot;&gt;&lt;span style=&quot;margin: 0px; padding: 0px; user-select: text; -webkit-user-drag: none; -webkit-tap-highlight-color: transparent; touch-action: pan-x pan-y; vertical-align: 0.0910052px; line-height: 0px; position: relative;&quot; class=&quot;NormalTextRun SCXP220574840 BCX0&quot;&gt;Armazena os dados&amp;nbsp;&lt;/span&gt;&lt;/span&gt;&lt;span style=&quot;margin: 0px; padding: 0.0910052px 0px 0px; user-select: text; -webkit-user-drag: none; -webkit-tap-highlight-color: transparent; touch-action: pan-x pan-y; font-variant-numeric: normal; font-variant-east-asian: normal; color: rgb(0, 0, 0); letter-spacing: 0px; background-color: rgb(237, 235, 233); font-size: 8pt; font-family: Verdana, Verdana_EmbeddedFont, Verdana_MSFontService, sans-serif; font-kerning: none; line-height: 9px; vertical-align: -0.0910052px;&quot; lang=&quot;PT-BR&quot; class=&quot;TextRun SCXP220574840 BCX0&quot; data-contrast=&quot;none&quot; data-usefontface=&quot;false&quot;&gt;&lt;span style=&quot;margin: 0px; padding: 0px; user-select: text; -webkit-user-drag: none; -webkit-tap-highlight-color: transparent; touch-action: pan-x pan-y; vertical-align: 0.0910052px; line-height: 0px; position: relative;&quot; class=&quot;NormalTextRun SCXP220574840 BCX0&quot;&gt;em cache (memória)&amp;nbsp;&lt;/span&gt;&lt;/span&gt;&lt;span style=&quot;margin: 0px; padding: 0.0910052px 0px 0px; user-select: text; -webkit-user-drag: none; -webkit-tap-highlight-color: transparent; touch-action: pan-x pan-y; font-variant-numeric: normal; font-variant-east-asian: normal; color: rgb(0, 0, 0); letter-spacing: 0px; background-color: rgb(237, 235, 233); font-size: 8pt; font-family: Verdana, Verdana_EmbeddedFont, Verdana_MSFontService, sans-serif; font-kerning: none; line-height: 9px; vertical-align: -0.0910052px;&quot; lang=&quot;PT-BR&quot; class=&quot;TextRun SCXP220574840 BCX0&quot; data-contrast=&quot;none&quot; data-usefontface=&quot;false&quot;&gt;&lt;span style=&quot;margin: 0px; padding: 0px; user-select: text; -webkit-user-drag: none; -webkit-tap-highlight-color: transparent; touch-action: pan-x pan-y; vertical-align: 0.0910052px; line-height: 0px; position: relative;&quot; class=&quot;NormalTextRun SCXP220574840 BCX0&quot;&gt;para otimizar o&amp;nbsp;&lt;/span&gt;&lt;/span&gt;&lt;span style=&quot;margin: 0px; padding: 0.0910052px 0px 0px; user-select: text; -webkit-user-drag: none; -webkit-tap-highlight-color: transparent; touch-action: pan-x pan-y; font-variant-numeric: normal; font-variant-east-asian: normal; color: rgb(0, 0, 0); letter-spacing: 0px; background-color: rgb(237, 235, 233); font-size: 8pt; font-family: Verdana, Verdana_EmbeddedFont, Verdana_MSFontService, sans-serif; font-kerning: none; line-height: 9px; vertical-align: -0.0910052px;&quot; lang=&quot;PT-BR&quot; class=&quot;TextRun SCXP220574840 BCX0&quot; data-contrast=&quot;none&quot; data-usefontface=&quot;false&quot;&gt;&lt;span style=&quot;margin: 0px; padding: 0px; user-select: text; -webkit-user-drag: none; -webkit-tap-highlight-color: transparent; touch-action: pan-x pan-y; vertical-align: 0.0910052px; line-height: 0px; position: relative;&quot; class=&quot;NormalTextRun SCXP220574840 BCX0&quot;&gt;desempenho do App&lt;/span&gt;&lt;/span&gt;&lt;span style=&quot;margin: 0px; padding: 0px; user-select: text; -webkit-user-drag: none; -webkit-tap-highlight-color: transparent; touch-action: pan-x pan-y; color: rgb(0, 0, 0); background-color: rgb(237, 235, 233); font-size: 8pt; line-height: 0px; font-family: Verdana, Verdana_EmbeddedFont, Verdana_MSFontService, sans-serif;&quot; class=&quot;EOP SCXP220574840 BCX0&quot;&gt;​&lt;/span&gt;" style="text;html=1;strokeColor=none;fillColor=none;align=center;verticalAlign=middle;whiteSpace=wrap;rounded=0;" vertex="1" parent="2">
                    <mxGeometry x="130" y="471.5" width="140" height="30" as="geometry"/>
                </mxCell>
                <object placeholders="1" c4Name=" " c4Type=" " c4Application=" " label="&lt;font style=&quot;font-size: 16px&quot;&gt;&lt;b&gt;&lt;div style=&quot;text-align: left&quot;&gt;%c4Name%&lt;/div&gt;&lt;/b&gt;&lt;/font&gt;&lt;div style=&quot;text-align: left&quot;&gt;[%c4Application%]&lt;/div&gt;" id="29">
                    <mxCell style="rounded=1;fontSize=11;whiteSpace=wrap;html=1;dashed=1;arcSize=20;fillColor=none;strokeColor=#666666;fontColor=#333333;labelBackgroundColor=#bbb9b9;align=left;verticalAlign=bottom;labelBorderColor=none;spacingTop=0;spacing=10;dashPattern=8 4;metaEdit=1;rotatable=0;perimeter=rectanglePerimeter;noLabel=0;labelPadding=0;allowArrows=0;connectable=0;expand=0;recursiveResize=0;editable=1;pointerEvents=0;absoluteArcSize=1;points=[[0.25,0,0],[0.5,0,0],[0.75,0,0],[1,0.25,0],[1,0.5,0],[1,0.75,0],[0.75,1,0],[0.5,1,0],[0.25,1,0],[0,0.75,0],[0,0.5,0],[0,0.25,0]];" vertex="1" parent="2">
                        <mxGeometry x="498" y="311.5" width="172" height="150" as="geometry"/>
                    </mxCell>
                </object>
                <mxCell id="30" value="Dockerfile" style="sketch=0;aspect=fixed;html=1;points=[];align=center;image;fontSize=12;image=img/lib/mscae/Docker.svg;labelBackgroundColor=#bbb9b9;labelBorderColor=default;fontColor=#030303;fillColor=#FFFFFF;" vertex="1" parent="2">
                    <mxGeometry x="480" y="437" width="50" height="41" as="geometry"/>
                </mxCell>
                <mxCell id="31" value="&lt;span style=&quot;margin: 0px; padding: 0.0910052px 0px 0px; user-select: text; -webkit-user-drag: none; -webkit-tap-highlight-color: transparent; touch-action: pan-x pan-y; font-variant-numeric: normal; font-variant-east-asian: normal; color: rgb(0, 0, 0); letter-spacing: 0px; background-color: rgb(237, 235, 233); font-size: 8pt; font-family: Verdana, Verdana_EmbeddedFont, Verdana_MSFontService, sans-serif; font-kerning: none; line-height: 9px; vertical-align: -0.0910052px;&quot; lang=&quot;PT-BR&quot; class=&quot;TextRun SCXP21025835 BCX0&quot; data-contrast=&quot;none&quot; data-usefontface=&quot;false&quot;&gt;&lt;span style=&quot;margin: 0px; padding: 0px; user-select: text; -webkit-user-drag: none; -webkit-tap-highlight-color: transparent; touch-action: pan-x pan-y; vertical-align: 0.0910052px; line-height: 0px; position: relative;&quot; class=&quot;NormalTextRun SCXP21025835 BCX0&quot;&gt;Usado como&amp;nbsp;&lt;/span&gt;&lt;/span&gt;&lt;span style=&quot;margin: 0px; padding: 0.0910052px 0px 0px; user-select: text; -webkit-user-drag: none; -webkit-tap-highlight-color: transparent; touch-action: pan-x pan-y; font-variant-numeric: normal; font-variant-east-asian: normal; color: rgb(0, 0, 0); letter-spacing: 0px; background-color: rgb(237, 235, 233); font-size: 8pt; font-family: Verdana, Verdana_EmbeddedFont, Verdana_MSFontService, sans-serif; font-kerning: none; line-height: 9px; vertical-align: -0.0910052px;&quot; lang=&quot;PT-BR&quot; class=&quot;TextRun SCXP21025835 BCX0&quot; data-contrast=&quot;none&quot; data-usefontface=&quot;false&quot;&gt;&lt;span style=&quot;margin: 0px; padding: 0px; user-select: text; -webkit-user-drag: none; -webkit-tap-highlight-color: transparent; touch-action: pan-x pan-y; vertical-align: 0.0910052px; line-height: 0px; position: relative;&quot; class=&quot;NormalTextRun SCXP21025835 BCX0&quot;&gt;armazenamento&lt;br&gt;&amp;nbsp;&lt;/span&gt;&lt;/span&gt;&lt;span style=&quot;margin: 0px; padding: 0.0910052px 0px 0px; user-select: text; -webkit-user-drag: none; -webkit-tap-highlight-color: transparent; touch-action: pan-x pan-y; font-variant-numeric: normal; font-variant-east-asian: normal; color: rgb(0, 0, 0); letter-spacing: 0px; background-color: rgb(237, 235, 233); font-size: 8pt; font-family: Verdana, Verdana_EmbeddedFont, Verdana_MSFontService, sans-serif; font-kerning: none; line-height: 9px; vertical-align: -0.0910052px;&quot; lang=&quot;PT-BR&quot; class=&quot;TextRun SCXP21025835 BCX0&quot; data-contrast=&quot;none&quot; data-usefontface=&quot;false&quot;&gt;&lt;span style=&quot;margin: 0px; padding: 0px; user-select: text; -webkit-user-drag: none; -webkit-tap-highlight-color: transparent; touch-action: pan-x pan-y; vertical-align: 0.0910052px; line-height: 0px; position: relative;&quot; class=&quot;NormalTextRun SCXP21025835 BCX0&quot;&gt;durável&lt;/span&gt;&lt;/span&gt;&lt;span style=&quot;margin: 0px; padding: 0px; user-select: text; -webkit-user-drag: none; -webkit-tap-highlight-color: transparent; touch-action: pan-x pan-y; color: rgb(0, 0, 0); background-color: rgb(237, 235, 233); font-size: 8pt; line-height: 0px; font-family: Verdana, Verdana_EmbeddedFont, Verdana_MSFontService, sans-serif;&quot; class=&quot;EOP SCXP21025835 BCX0&quot;&gt;​&lt;/span&gt;" style="text;html=1;strokeColor=none;fillColor=none;align=center;verticalAlign=middle;whiteSpace=wrap;rounded=0;" vertex="1" parent="2">
                    <mxGeometry x="545" y="471.5" width="140" height="30" as="geometry"/>
                </mxCell>
                <mxCell id="33" value="Redis" style="sketch=0;aspect=fixed;html=1;points=[];align=center;image;fontSize=12;image=img/lib/mscae/Cache_Redis_Product.svg;" vertex="1" parent="2">
                    <mxGeometry x="140" y="352.5" width="50" height="42" as="geometry"/>
                </mxCell>
                <mxCell id="35" value="" style="sketch=0;outlineConnect=0;fontColor=#232F3E;gradientColor=none;fillColor=#FFFFFF;strokeColor=none;dashed=0;verticalLabelPosition=bottom;verticalAlign=top;align=center;html=1;fontSize=12;fontStyle=0;aspect=fixed;pointerEvents=1;shape=mxgraph.aws4.rds_postgresql_instance;" vertex="1" parent="2">
                    <mxGeometry x="545" y="343.5" width="78" height="78" as="geometry"/>
                </mxCell>
                <mxCell id="44" value="" style="edgeStyle=elbowEdgeStyle;elbow=vertical;endArrow=classic;html=1;curved=0;rounded=0;endSize=8;startSize=8;dashed=1;shape=link;" edge="1" parent="2" source="24" target="33">
                    <mxGeometry width="50" height="50" relative="1" as="geometry">
                        <mxPoint x="335" y="430" as="sourcePoint"/>
                        <mxPoint x="385" y="380" as="targetPoint"/>
                    </mxGeometry>
                </mxCell>
                <mxCell id="49" value="MicroServices" style="sketch=0;aspect=fixed;html=1;points=[];align=center;image;fontSize=12;image=img/lib/mscae/Kubernetes_Services.svg;fillColor=#FFFFFF;" vertex="1" parent="2">
                    <mxGeometry x="-10" y="-10" width="50" height="37" as="geometry"/>
                </mxCell>
                <mxCell id="45" value="" style="edgeStyle=elbowEdgeStyle;elbow=vertical;endArrow=classic;html=1;curved=0;rounded=0;endSize=8;startSize=8;dashed=1;shape=link;" edge="1" parent="1" target="35">
                    <mxGeometry width="50" height="50" relative="1" as="geometry">
                        <mxPoint x="423.75" y="620" as="sourcePoint"/>
                        <mxPoint x="215" y="672.5" as="targetPoint"/>
                    </mxGeometry>
                </mxCell>
                <mxCell id="47" style="edgeStyle=none;shape=link;html=1;entryX=0.5;entryY=0;entryDx=0;entryDy=0;entryPerimeter=0;dashed=1;" edge="1" parent="1" target="17">
                    <mxGeometry relative="1" as="geometry">
                        <mxPoint x="413.820987654321" y="262" as="sourcePoint"/>
                    </mxGeometry>
                </mxCell>
                <mxCell id="48" value="" style="aspect=fixed;html=1;points=[];align=center;image;fontSize=12;image=img/lib/azure2/app_services/App_Service_Domains.svg;fillColor=#FFFFFF;" vertex="1" parent="1">
                    <mxGeometry x="380" y="220" width="65" height="52" as="geometry"/>
                </mxCell>
            </root>
        </mxGraphModel>
    </diagram>
</mxfile>